<svg width="912" height="433" viewBox="0 0 912 433" fill="none" xmlns="http://www.w3.org/2000/svg">
<path d="M412.788 19.9724C411.85 14.8868 415.911 10.2609 421.075 10.5324L450.92 12.1015C455.169 12.3249 458.5 15.8354 458.5 20.0904V53.8167C458.5 57.2199 456.347 60.2506 453.133 61.3708L431.208 69.0141C426.577 70.6285 421.597 67.734 420.708 62.911L412.788 19.9724Z" fill="#947347"/>
<path d="M409.013 88.8548C408.629 79.3112 416.91 71.4171 427.161 71.5555L456 75.5C465.393 75.6268 464.991 88.5748 464.202 98.1611C464.051 99.998 464.521 101.833 465.556 103.358L483.399 129.642C484.435 131.167 484.995 133.038 484.35 134.764C481.659 141.962 471.573 149.101 463.956 149.81L430.619 152.916C420.346 153.873 411.336 146.558 410.949 136.947L409.013 88.8548Z" fill="#947347"/>
<path d="M200.788 25.9724C199.85 20.8868 203.911 16.2609 209.075 16.5324L237.738 18.0393C242.44 18.2866 245.913 22.5226 245.234 27.1827L243 42.5L240.18 66.6756C239.775 70.1427 237.169 72.9473 233.741 73.6052L218.313 76.5661C213.952 77.4031 209.743 74.5277 208.938 70.1605L200.788 25.9724Z" fill="#F3C89A"/>
<path d="M197.013 94.8548C196.629 85.3112 204.91 77.4171 215.161 77.5555H230.5C239.743 77.6803 240.333 95.3471 239.75 105.989C239.627 108.232 240.365 110.443 241.884 112.099L265.632 137.984C267.151 139.64 268.007 141.894 267.316 144.032C265.264 150.381 259.277 155.128 251.956 155.81L218.619 158.916C208.346 159.873 199.336 152.558 198.949 142.947L197.013 94.8548Z" fill="#F3C89A"/>
<path d="M409.179 16.0074C408.531 10.7346 412.36 5.96598 417.648 5.45854L449.339 2.41745C453.497 2.01843 457.385 4.52675 458.735 8.47959C460.587 13.8993 456.984 19.6499 451.299 20.3479L419.7 24.2278C414.525 24.8633 409.814 21.1829 409.179 16.0074Z" fill="#4D4646"/>
<path d="M421.007 60.0274C415.735 60.6749 410.966 56.8463 410.458 51.5583L407.417 19.8673C407.018 15.7092 409.527 11.8212 413.48 10.4707C418.899 8.61901 424.65 12.222 425.348 17.9066L429.228 49.5058C429.863 54.6813 426.183 59.392 421.007 60.0274Z" fill="#4D4646"/>
<path d="M34.7612 191.738C43.2695 162.914 69.2273 142.737 99.2595 141.605L433.5 129H641L820 154L822.795 154.447C863.329 160.923 896.808 189.584 909.454 228.636C911.141 233.847 912 239.289 912 244.766V262C912 296.242 884.242 324 850 324H325.5L67.6417 312.513C33.2494 310.981 9.42243 277.579 19.1687 244.561L34.7612 191.738Z" fill="#E98367"/>
<path d="M861 309C861 280.833 883.833 258 912 258V272C912 300.167 889.167 323 861 323V309Z" fill="#3B8382"/>
<path d="M861 311C861 281.729 880.209 258 903.905 258H912V260C912 294.794 889.167 323 861 323V311Z" fill="#3B8382"/>
<path d="M58.0463 182.397C62.1099 171.36 72.7569 164.14 84.5146 164.45C93.1483 164.677 98.8864 173.472 95.6166 181.466L56.2636 277.673C55.2045 280.263 52.715 281.981 49.9183 282.054C36.0944 282.413 26.2697 268.709 31.0474 255.732L58.0463 182.397Z" fill="#FADDBE"/>
<rect x="178" y="216" width="143" height="22" rx="11" fill="#FADDBE"/>
<rect x="423" y="216" width="143" height="22" rx="11" fill="#FADDBE"/>
<path d="M609 86.5714C609 84.0467 611.047 82 613.571 82C624.302 82 633 90.6985 633 101.429V142.467C633 151.598 625.598 159 616.467 159C612.343 159 609 155.657 609 151.533V120.5V86.5714Z" fill="#3B8382"/>
<path d="M291.143 159C290.512 159 290 158.488 290 157.857C290 155.175 292.175 153 294.857 153H316.867C319.149 153 321 154.851 321 157.133C321 158.164 320.164 159 319.133 159H305.5H291.143Z" fill="#3B8382"/>
<path d="M530.143 159C529.512 159 529 158.488 529 157.857C529 155.175 531.175 153 533.857 153H556.867C559.149 153 561 154.851 561 157.133C561 158.164 560.164 159 559.133 159H545H530.143Z" fill="#3B8382"/>
<path d="M197 40C190.506 27.0126 200.383 11.8345 214.888 12.5114L232.12 13.3155C240.631 13.7127 247.658 20.1013 248.863 28.5357L249.235 31.139C249.608 33.7561 247.282 35.9564 244.69 35.438L237.531 34.0061C230.93 32.6861 224.116 32.8876 217.605 34.5953L197 40Z" fill="#FEE97E"/>
<path d="M197 30H214.362L212.974 46.0705C212.543 51.0729 213.192 56.1096 214.879 60.8388L219.721 74.415C220.388 76.2833 219.202 78.2996 217.246 78.6257L205.265 80.6225C195.389 82.2684 188.36 71.2718 194 63L197 30Z" fill="#FEE97E"/>
<mask id="path-15-inside-1_674_3" fill="white">
<path d="M297.705 328C297.705 416.5 250.94 282.5 206.205 282.5C161.47 282.5 106.205 427 110.205 328C110.205 283.265 161.47 253 206.205 253C250.94 253 297.705 283.265 297.705 328Z"/>
</mask>
<path d="M297.705 328C297.705 416.5 250.94 282.5 206.205 282.5C161.47 282.5 106.205 427 110.205 328C110.205 283.265 161.47 253 206.205 253C250.94 253 297.705 283.265 297.705 328Z" fill="#3B8382" stroke="#3B8382" stroke-width="2000" mask="url(#path-15-inside-1_674_3)"/>
<path d="M327 324C327 314.611 334.611 307 344 307H549C558.389 307 566 314.611 566 324H327Z" fill="#3B8382"/>
<circle cx="204.205" cy="352" r="69" fill="#5D5D5D" stroke="white" stroke-width="24"/>
<circle cx="203.705" cy="351.5" r="22.5" fill="#D9D9D9"/>
<mask id="path-19-inside-2_674_3" fill="white">
<path d="M782.705 328C782.705 416.5 735.94 282.5 691.205 282.5C646.47 282.5 591.205 427 595.205 328C595.205 283.265 646.47 253 691.205 253C735.94 253 782.705 283.265 782.705 328Z"/>
</mask>
<path d="M782.705 328C782.705 416.5 735.94 282.5 691.205 282.5C646.47 282.5 591.205 427 595.205 328C595.205 283.265 646.47 253 691.205 253C735.94 253 782.705 283.265 782.705 328Z" fill="#3B8382" stroke="#3B8382" stroke-width="2000" mask="url(#path-19-inside-2_674_3)"/>
<circle cx="689.205" cy="352" r="69" fill="#5D5D5D" stroke="white" stroke-width="24"/>
<circle cx="688.705" cy="351.5" r="22.5" fill="#D9D9D9"/>
</svg>
